# File generated by ImageToStl.com - Free Image and 3D model conversion tools

mtllib room_vis.mtl

o obj1
v -0.1 0 1.2E-07
v -0 0 1.2E-07
v -0 0 2.4
v -0.1 0 2.4
vn 0 -1 0
usemtl mat0
f 1//1 2//1 3//1
f 1//1 3//1 4//1
# Vertices: 4, normals: 1, texture coordinates: 0, faces: 2

o obj2
v -1E-07 0 1.2E-07
v -1E-07 2.5 1.2E-07
v -1E-07 2.5 2.4
v -1E-07 0 2.4
vn 1 0 0
usemtl mat1
f 5//2 6//2 7//2
f 5//2 7//2 8//2
# Vertices: 4, normals: 1, texture coordinates: 0, faces: 2

o obj3
v -0.1 2.5 2.4
v -0.1 0 2.4
v -0 0 2.4
v -0 2.5 2.4
vn 0 0 1
usemtl mat2
f 9//3 10//3 11//3
f 9//3 11//3 12//3
# Vertices: 4, normals: 1, texture coordinates: 0, faces: 2

o obj4
v -0.1 0 2.4
v -0.1 2.5 2.4
v -0.1 2.5 1.2E-07
v -0.1 0 1.2E-07
vn -1 0 0
usemtl mat3
f 13//4 14//4 15//4
f 13//4 15//4 16//4
# Vertices: 4, normals: 1, texture coordinates: 0, faces: 2

o obj5
v -0.1 0 0
v -0.1 2.5 0
v -0 2.5 0
v -0 0 0
vn 0 0 -1
usemtl mat4
f 17//5 18//5 19//5
f 17//5 19//5 20//5
# Vertices: 4, normals: 1, texture coordinates: 0, faces: 2

o obj6
v -0 2.5 1.2E-07
v -0.1 2.5 1.2E-07
v -0.1 2.5 2.4
v -0 2.5 2.4
vn 0 1 0
usemtl mat5
f 21//6 22//6 23//6
f 21//6 23//6 24//6
# Vertices: 4, normals: 1, texture coordinates: 0, faces: 2

o obj7
v -0.0999999 4E-08 -0.1
v -0.0999999 -0.1 -0.1
v -0.0999999 -0.1 2.5
v -0.0999999 4E-08 2.5
vn -1 0 0
usemtl mat6
f 25//7 26//7 27//7
f 25//7 27//7 28//7
# Vertices: 4, normals: 1, texture coordinates: 0, faces: 2

o obj8
v -0.0999999 -0.1 -0.1
v 6 -0.1 -0.1
v 6 -0.1 2.5
v -0.0999999 -0.1 2.5
vn -0 -1 0
usemtl mat7
f 29//8 30//8 31//8
f 29//8 31//8 32//8
# Vertices: 4, normals: 1, texture coordinates: 0, faces: 2

o obj9
v 6 -1E-07 2.5
v -0.0999999 0 2.5
v -0.0999999 -0.0999999 2.5
v 6 -0.1 2.5
vn 0 0 1
usemtl mat8
f 33//9 34//9 35//9
f 33//9 35//9 36//9
# Vertices: 4, normals: 1, texture coordinates: 0, faces: 2

o obj10
v -0.0999999 5E-08 2.5
v 6 -5E-08 2.5
v 6 -5E-08 -0.1
v -0.0999999 5E-08 -0.1
vn 0 1 0
usemtl mat9
f 37//10 38//10 39//10
f 37//10 39//10 40//10
# Vertices: 4, normals: 1, texture coordinates: 0, faces: 2

o obj11
v -0.0999999 0 -0.0999999
v 6 -1E-07 -0.0999999
v 6 -0.1 -0.0999999
v -0.0999999 -0.0999999 -0.0999999
vn 0 0 -1
usemtl mat10
f 41//11 42//11 43//11
f 41//11 43//11 44//11
# Vertices: 4, normals: 1, texture coordinates: 0, faces: 2

o obj12
v 6 -0.1 -0.1
v 6 -5E-08 -0.1
v 6 -5E-08 2.5
v 6 -0.1 2.5
vn 1 0 0
usemtl mat11
f 45//12 46//12 47//12
f 45//12 47//12 48//12
# Vertices: 4, normals: 1, texture coordinates: 0, faces: 2

o obj13
v -0.0999999 2.6 -0.1
v -0.0999999 2.5 -0.1
v -0.0999999 2.5 2.5
v -0.0999999 2.6 2.5
vn -1 0 0
usemtl mat12
f 49//13 50//13 51//13
f 49//13 51//13 52//13
# Vertices: 4, normals: 1, texture coordinates: 0, faces: 2

o obj14
v -0.0999999 2.5 -0.1
v 6 2.5 -0.1
v 6 2.5 2.5
v -0.0999999 2.5 2.5
vn 0 -1 0
usemtl mat13
f 53//14 54//14 55//14
f 53//14 55//14 56//14
# Vertices: 4, normals: 1, texture coordinates: 0, faces: 2

o obj15
v 6 2.6 2.5
v -0.0999999 2.6 2.5
v -0.0999999 2.5 2.5
v 6 2.5 2.5
vn 0 0 1
usemtl mat14
f 57//15 58//15 59//15
f 57//15 59//15 60//15
# Vertices: 4, normals: 1, texture coordinates: 0, faces: 2

o obj16
v -0.0999999 2.6 2.5
v 6 2.6 2.5
v 6 2.6 -0.1
v -0.0999999 2.6 -0.1
vn 0 1 0
usemtl mat15
f 61//16 62//16 63//16
f 61//16 63//16 64//16
# Vertices: 4, normals: 1, texture coordinates: 0, faces: 2

o obj17
v -0.0999999 2.6 -0.0999999
v 6 2.6 -0.0999999
v 6 2.5 -0.0999999
v -0.0999999 2.5 -0.0999999
vn 0 0 -1
usemtl mat16
f 65//17 66//17 67//17
f 65//17 67//17 68//17
# Vertices: 4, normals: 1, texture coordinates: 0, faces: 2

o obj18
v 6 2.5 -0.1
v 6 2.6 -0.1
v 6 2.6 2.5
v 6 2.5 2.5
vn 1 0 0
usemtl mat17
f 69//18 70//18 71//18
f 69//18 71//18 72//18
# Vertices: 4, normals: 1, texture coordinates: 0, faces: 2

o obj19
v 3 1.9 0
v 3.1 1.9 0
v 3.1 1.9 2.4
v 3 1.9 2.4
v 3.1 2.5 0
v 3.1 2.5 2.4
v 3 2.5 2.4
v 3 2.5 0
v 3 0 0
v 3.1 0 0
v 3.1 0 0.8
v 3 0 0.8
v 3.1 1.9 0.8
v 3 1.9 0.8
v 3 0 1.6
v 3.1 0 1.6
v 3.1 0 2.4
v 3 0 2.4
v 3.1 1.9 1.6
v 3 1.9 1.6
vn 0 -1 0
vn 1 0 0
vn 0 0 1
vn -1 0 0
vn 0 0 -1
vn 0 1 0
usemtl mat18
f 73//19 74//19 75//19
f 73//19 75//19 76//19
f 74//20 77//20 78//20
f 74//20 78//20 75//20
f 79//21 76//21 75//21
f 79//21 75//21 78//21
f 76//22 79//22 80//22
f 76//22 80//22 73//22
f 73//23 80//23 77//23
f 73//23 77//23 74//23
f 77//24 80//24 79//24
f 77//24 79//24 78//24
f 81//19 82//19 83//19
f 81//19 83//19 84//19
f 82//20 74//20 85//20
f 82//20 85//20 83//20
f 86//21 84//21 83//21
f 86//21 83//21 85//21
f 84//22 86//22 73//22
f 84//22 73//22 81//22
f 81//23 73//23 74//23
f 81//23 74//23 82//23
f 74//24 73//24 86//24
f 74//24 86//24 85//24
f 87//19 88//19 89//19
f 87//19 89//19 90//19
f 88//20 91//20 75//20
f 88//20 75//20 89//20
f 76//21 90//21 89//21
f 76//21 89//21 75//21
f 90//22 76//22 92//22
f 90//22 92//22 87//22
f 87//23 92//23 91//23
f 87//23 91//23 88//23
f 91//24 92//24 76//24
f 91//24 76//24 75//24
# Vertices: 20, normals: 6, texture coordinates: 0, faces: 36

o obj20
v 0.2 0 0.2
v 0.2 0.1 0.2
v 0.5 0.1 0.2
v 0.5 0 0.2
vn 0 0 -1
usemtl mat19
f 93//25 94//25 95//25
f 93//25 95//25 96//25
# Vertices: 4, normals: 1, texture coordinates: 0, faces: 2

o obj21
v 0.5 0.1 0.5
v 0.5 0 0.5
v 0.5 0 0.2
v 0.5 0.1 0.2
vn 1 0 0
usemtl mat20
f 97//26 98//26 99//26
f 97//26 99//26 100//26
# Vertices: 4, normals: 1, texture coordinates: 0, faces: 2

o obj22
v 0.5 0 0.5
v 0.5 0.1 0.5
v 0.2 0.1 0.5
v 0.2 0 0.5
vn 0 0 1
usemtl mat21
f 101//27 102//27 103//27
f 101//27 103//27 104//27
# Vertices: 4, normals: 1, texture coordinates: 0, faces: 2

o obj23
v 0.2 0 0.5
v 0.2 0.1 0.5
v 0.2 0.1 0.2
v 0.2 0 0.2
vn -1 0 0
usemtl mat22
f 105//28 106//28 107//28
f 105//28 107//28 108//28
# Vertices: 4, normals: 1, texture coordinates: 0, faces: 2

o obj24
v 0.2 0.1 0.2
v 0.2 0.1 0.5
v 0.5 0.1 0.5
v 0.5 0.1 0.2
vn 0 1 0
usemtl mat23
f 109//29 110//29 111//29
f 109//29 111//29 112//29
# Vertices: 4, normals: 1, texture coordinates: 0, faces: 2

o obj25
v 0.2 0 0.5
v 0.2 0 0.2
v 0.5 0 0.2
v 0.5 0 0.5
vn 0 -1 0
usemtl mat24
f 113//30 114//30 115//30
f 113//30 115//30 116//30
# Vertices: 4, normals: 1, texture coordinates: 0, faces: 2

o obj26
v 0.2 0.1 0.2
v 0.2 0.8 0.2
v 0.5 0.8 0.2
v 0.5 0.1 0.2
v 0.5 0.8 0.5
v 0.5 0.1 0.5
v 0.2 0.8 0.5
v 0.2 0.1 0.5
vn 0 0 -1
vn 1 0 0
vn 0 0 1
vn -1 0 0
vn 0 1 0
vn 0 -1 0
usemtl mat25
f 117//31 118//31 119//31
f 117//31 119//31 120//31
f 121//32 122//32 120//32
f 121//32 120//32 119//32
f 122//33 121//33 123//33
f 122//33 123//33 124//33
f 124//34 123//34 118//34
f 124//34 118//34 117//34
f 118//35 123//35 121//35
f 118//35 121//35 119//35
f 124//36 117//36 120//36
f 124//36 120//36 122//36
# Vertices: 8, normals: 6, texture coordinates: 0, faces: 12

o obj27
v -0.0935402 0 0
v -0.0935402 0 -0.1
v 6 0 -0.1
v 6 0 0
vn 0 -1 0
usemtl mat26
f 125//37 126//37 127//37
f 125//37 127//37 128//37
# Vertices: 4, normals: 1, texture coordinates: 0, faces: 2

o obj28
v -0.0935402 0 -0.1
v -0.0935402 2.5 -0.1
v 6 2.5 -0.1
v 6 0 -0.1
vn 0 0 -1
usemtl mat27
f 129//38 130//38 131//38
f 129//38 131//38 132//38
# Vertices: 4, normals: 1, texture coordinates: 0, faces: 2

o obj29
v 6 2.5 0
v 6 0 0
v 6 0 -0.1
v 6 2.5 -0.1
vn 1 0 0
usemtl mat28
f 133//39 134//39 135//39
f 133//39 135//39 136//39
# Vertices: 4, normals: 1, texture coordinates: 0, faces: 2

o obj30
v 6 0 0
v 6 2.5 0
v -0.0935402 2.5 0
v -0.0935402 0 0
vn 0 0 1
usemtl mat29
f 137//40 138//40 139//40
f 137//40 139//40 140//40
# Vertices: 4, normals: 1, texture coordinates: 0, faces: 2

o obj31
v -0.0935402 0 0
v -0.0935402 2.5 0
v -0.0935402 2.5 -0.1
v -0.0935402 0 -0.1
vn -1 0 0
usemtl mat30
f 141//41 142//41 143//41
f 141//41 143//41 144//41
# Vertices: 4, normals: 1, texture coordinates: 0, faces: 2

o obj32
v -0.0935402 2.5 -0.1
v -0.0935402 2.5 0
v 6 2.5 0
v 6 2.5 -0.1
vn 0 1 0
usemtl mat31
f 145//42 146//42 147//42
f 145//42 147//42 148//42
# Vertices: 4, normals: 1, texture coordinates: 0, faces: 2

